:version 1.10
:name ASF
:units
  mass 1
  length 1
  angle deg
:documentation
  ASF file generated by Kaydara
:root
  axis xyz
  order  tx ty tz rx ry rz
  position 0 0 0
  orientation 0 0 0
:bonedata
  begin
    id 1
    name RightUpLegDummy
    direction -0.65628 -0.754516 0.00165102
    length 4.76918
    axis 0 0 0 xyz
  end
  begin
    id 2
    name RightUpLeg
    direction -0.145584 -0.923362 0.355256
    length 17.9961
    axis -24.7611 -13.1006 1.78531 xyz
    dof rx ry rz
  end
  begin
    id 3
    name RightLeg
    direction 0.263379 0.172355 -0.949171
    length 13.3386
    axis 89.6202 -21.1929 12.3855 xyz
    dof rx ry rz
  end
  begin
    id 4
    name RightFoot
    direction 0.224283 -0.968777 -0.105675
    length 5.86697
    axis 56.995 -39.6905 17.3365 xyz
    dof rx ry rz
  end
  begin
    id 5
    name RightToes
    direction -0.0806345 -0.9037 0.420506
    length 4.75197
    axis 146.825 -39.7828 17.6019 xyz
    dof rx ry rz
  end
  begin
    id 6
    name SpineDummy
    direction -3.39852e-014 1 9.33296e-014
    length 8.13779
    axis 0 0 0 xyz
  end
  begin
    id 7
    name Spine
    direction -0.156609 0.733703 0.661176
    length 7.14978
    axis 41.2365 5.68757 17.0844 xyz
    dof rx ry rz
  end
  begin
    id 8
    name Spine1
    direction 0 0 0
    length 0
    axis 42.8809 47.8308 -3.36039 xyz
    dof rx ry rz
  end
  begin
    id 9
    name HEadDummy
    direction 0.546431 0.701947 0.456819
    length 3.55512
    axis 42.8809 47.8308 -3.36039 xyz
  end
  begin
    id 10
    name HEad
    direction 0.23444 0.828559 0.508457
    length 7.35827
    axis 51.1864 49.2662 27.4903 xyz
    dof rx ry rz
  end
  begin
    id 11
    name LeftShoulder1Dummy
    direction 0.431183 0.475873 -0.766568
    length 2.49352
    axis 42.8809 47.8308 -3.36039 xyz
  end
  begin
    id 12
    name LeftShoulder1
    direction 0.268187 -0.383402 -0.883786
    length 4.48604
    axis -119.517 0.106469 35.1736 xyz
    dof rx ry rz
  end
  begin
    id 13
    name LeftArm
    direction 0.380567 -0.703221 -0.600541
    length 10.1142
    axis -5.41825 36.2925 7.8293 xyz
    dof rx ry rz
  end
  begin
    id 14
    name LeftForeArm
    direction 0.541071 -0.732356 -0.413396
    length 9.39839
    axis 4.65387 33.7604 7.81644 xyz
    dof rx ry rz
  end
  begin
    id 15
    name LeftHand
    direction 0.847511 -0.389379 -0.360707
    length 3.66142
    axis 7.65593 21.1436 -24.6758 xyz
    dof rx ry rz
  end
  begin
    id 16
    name RightShoulderDummy
    direction -0.692546 0.541855 0.476208
    length 2.49352
    axis 42.8809 47.8308 -3.36039 xyz
  end
  begin
    id 17
    name RightShoulder
    direction -0.870808 -0.316653 0.376065
    length 4.48602
    axis 141.571 51.133 -100.254 xyz
    dof rx ry rz
  end
  begin
    id 18
    name RightArm
    direction 0.366897 -0.87275 0.322015
    length 10.1142
    axis 92.3258 71.2036 138.917 xyz
    dof rx ry rz
  end
  begin
    id 19
    name RightForeArm
    direction 0.702487 -0.694568 0.155197
    length 9.39835
    axis 153.863 41.5092 -176.604 xyz
    dof rx ry rz
  end
  begin
    id 20
    name RightHand
    direction 0.79502 -0.601276 0.0800636
    length 3.66142
    axis 154.247 4.59222 142.9 xyz
    dof rx ry rz
  end
  begin
    id 21
    name LeftUpLegDummy
    direction 0.65628 -0.754516 0.00165102
    length 4.76919
    axis 0 0 0 xyz
  end
  begin
    id 22
    name LeftUpLeg
    direction -0.1277 -0.689368 0.713067
    length 17.9961
    axis -48.3385 -17.8675 0.791927 xyz
    dof rx ry rz
  end
  begin
    id 23
    name LeftLeg
    direction 0.109849 -0.991246 -0.0732378
    length 13.3386
    axis -2.05791 -7.30784 1.72042 xyz
    dof rx ry rz
  end
  begin
    id 24
    name LeftFoot
    direction 0.0448355 -0.272614 0.961078
    length 5.86697
    axis -18.7733 -7.89606 10.2113 xyz
    dof rx ry rz
  end
  begin
    id 25
    name LeftToes
    direction -0.18506 0.293668 0.937823
    length 4.75197
    axis 71.2267 -7.89606 10.2113 xyz
    dof rx ry rz
  end
:hierarchy
  begin
    root RightUpLegDummy SpineDummy LeftUpLegDummy
    RightUpLegDummy RightUpLeg
    RightUpLeg RightLeg
    RightLeg RightFoot
    RightFoot RightToes
    SpineDummy Spine
    Spine Spine1
    Spine1 HEadDummy LeftShoulder1Dummy RightShoulderDummy
    HEadDummy HEad
    LeftShoulder1Dummy LeftShoulder1
    LeftShoulder1 LeftArm
    LeftArm LeftForeArm
    LeftForeArm LeftHand
    RightShoulderDummy RightShoulder
    RightShoulder RightArm
    RightArm RightForeArm
    RightForeArm RightHand
    LeftUpLegDummy LeftUpLeg
    LeftUpLeg LeftLeg
    LeftLeg LeftFoot
    LeftFoot LeftToes
  end

:SAMPLES-PER-SECOND 30
:FULLY-SPECIFIED
:DEGREES
636
root  -30.0789 38.7776 17.2855 -2.07523 46.8192 0.830368
RightUpLeg  15.8282 10.8382 7.29089
RightLeg  -83.0182 -15.0969 7.66663
RightFoot  10.9501 6.78473 -17.7487
RightToes  -1.27222e-014 -6.36111e-015 6.36111e-015
Spine  -43.3683 -22.61 -12.4086
Spine1  7.43973 -17.5592 64.6313
HEad  16.3872 -47.5825 -22.9681
LeftShoulder1  6.36111e-015 -1.33558e-015 6.49777e-015
LeftArm  31.2196 -12.3046 -56.218
LeftForeArm  -3.88161 -28.3645 0.329432
LeftHand  -1.33829 -1.47469 -11.2592
RightShoulder  -4.77083e-015 -6.36111e-015 -3.18055e-015
RightArm  72.2205 -39.4761 -58.9949
RightForeArm  -0.931375 -10.5132 8.00007
RightHand  3.2985 -4.97663 -13.7398
LeftUpLeg  39.6183 9.20781 15.5868
LeftLeg  2.31804 -3.0405 -0.426463
LeftFoot  3.15344 3.2155 -9.83842
LeftToes  9.54166e-015 -1.91609e-011 -2.3878e-011
637
root  -29.7994 38.8037 17.8845 -1.77597 46.8981 0.911133
RightUpLeg  16.665 10.4803 7.5504
RightLeg  -83.0358 -15.1229 7.74395
RightFoot  11.0003 6.93895 -18.0437
RightToes  -1.27222e-014 -6.36111e-015 6.36111e-015
Spine  -43.5875 -20.8999 -11.2906
Spine1  8.12048 -16.8554 62.7121
HEad  16.5901 -49.0994 -23.3563
LeftShoulder1  6.36111e-015 -1.33558e-015 6.49777e-015
LeftArm  30.6576 -11.095 -55.8194
LeftForeArm  -4.25804 -26.9426 0.133664
LeftHand  -1.35293 -1.59457 -10.9611
RightShoulder  -4.77083e-015 -6.36111e-015 -3.18055e-015
RightArm  68.1078 -40.0424 -53.921
RightForeArm  -0.217678 -8.79511 8.76067
RightHand  3.71874 -5.47781 -15.1898
LeftUpLeg  35.955 10.672 14.4441
LeftLeg  4.57698 -3.7412 -0.418624
LeftFoot  2.78901 3.34815 -10.3505
LeftToes  9.54166e-015 -1.91609e-011 -2.3878e-011
638
root  -29.5106 38.8382 18.4455 -1.41122 47.2139 1.01154
RightUpLeg  17.3981 9.73686 7.42379
RightLeg  -82.9881 -14.9958 7.29623
RightFoot  11.1371 6.9359 -18.0567
RightToes  -1.27222e-014 -6.36111e-015 6.36111e-015
Spine  -43.5015 -19.6699 -10.636
Spine1  8.5567 -16.3028 61.2579
HEad  16.562 -50.4951 -23.2645
LeftShoulder1  6.36111e-015 -1.33558e-015 6.49777e-015
LeftArm  30.5656 -10.0811 -55.6288
LeftForeArm  -4.24306 -26.2214 -0.00833178
LeftHand  -1.30834 -1.45383 -10.894
RightShoulder  -4.77083e-015 -6.36111e-015 -3.18055e-015
RightArm  63.3399 -39.4364 -46.8268
RightForeArm  -0.714182 -7.78357 8.83436
RightHand  3.83939 -5.55138 -15.7066
LeftUpLeg  31.978 12.4827 13.4214
LeftLeg  5.23565 -1.71575 0.0614382
LeftFoot  2.41235 3.49182 -10.9114
LeftToes  9.54166e-015 -1.91609e-011 -2.3878e-011
639
root  -29.2189 38.9017 18.9826 -0.985321 47.3371 1.17766
RightUpLeg  18.2287 9.34965 7.40209
RightLeg  -83.2866 -14.8417 7.02834
RightFoot  11.4358 6.89604 -18.0235
RightToes  -1.27222e-014 -6.36111e-015 6.36111e-015
Spine  -42.9614 -18.7293 -10.4719
Spine1  8.66522 -15.7221 59.9787
HEad  15.9273 -52.0464 -22.5038
LeftShoulder1  6.36111e-015 -1.33558e-015 6.49777e-015
LeftArm  31.1235 -9.56614 -55.8747
LeftForeArm  -3.92392 -25.9043 -0.13583
LeftHand  -1.19714 -0.98961 -11.2004
RightShoulder  -4.77083e-015 -6.36111e-015 -3.18055e-015
RightArm  58.9031 -37.5593 -38.8279
RightForeArm  -2.8019 -8.23823 7.68808
RightHand  3.81803 -5.47843 -15.7144
LeftUpLeg  28.2113 14.5704 12.5667
LeftLeg  3.85091 0.417077 0.354261
LeftFoot  2.58711 3.87158 -12.0331
LeftToes  9.54166e-015 -1.91609e-011 -2.3878e-011
640
root  -28.9059 38.9794 19.5159 -0.755936 47.0696 1.16125
RightUpLeg  19.2703 9.40486 7.78102
RightLeg  -83.8876 -14.7191 7.08844
RightFoot  12.015 6.92709 -18.1586
RightToes  -1.27222e-014 -6.36111e-015 6.36111e-015
Spine  -42.1729 -17.7698 -10.4579
Spine1  8.64337 -15.0322 58.7062
HEad  14.8302 -53.6548 -21.4548
LeftShoulder1  6.36111e-015 -1.33558e-015 6.49777e-015
LeftArm  32.1494 -9.3306 -56.4167
LeftForeArm  -3.44629 -25.4723 -0.314025
LeftHand  -1.13932 -0.704118 -11.5155
RightShoulder  -4.77083e-015 -6.36111e-015 -3.18055e-015
RightArm  55.4247 -34.6841 -31.1738
RightForeArm  -5.85191 -9.9953 5.66582
RightHand  3.90542 -5.65323 -15.8856
LeftUpLeg  25.201 16.8645 12.048
LeftLeg  0.488827 1.07799 0.00354804
LeftFoot  3.55986 4.02892 -12.1767
LeftToes  9.54166e-015 -1.91609e-011 -2.3878e-011
641
root  -28.5562 39.0506 20.0433 -0.529144 46.5004 1.18408
RightUpLeg  20.3182 9.5064 8.01711
RightLeg  -84.3799 -14.5337 6.85293
RightFoot  12.6615 6.89962 -18.1941
RightToes  -1.27222e-014 -6.36111e-015 6.36111e-015
Spine  -41.2316 -16.9757 -10.653
Spine1  8.5024 -14.3273 57.3765
HEad  13.7018 -55.2055 -20.4898
LeftShoulder1  6.36111e-015 -1.33558e-015 6.49777e-015
LeftArm  33.6346 -9.27506 -57.2628
LeftForeArm  -2.9911 -24.5595 -0.558917
LeftHand  -1.14158 -0.699643 -11.5637
RightShoulder  -4.77083e-015 -6.36111e-015 -3.18055e-015
RightArm  53.1925 -31.2646 -24.341
RightForeArm  -9.28183 -12.5595 3.1297
RightHand  4.0041 -5.92848 -15.9482
LeftUpLeg  22.8586 19.2386 11.435
LeftLeg  -4.33366 0.00218402 -0.756048
LeftFoot  4.7288 3.70328 -10.8385
LeftToes  9.54166e-015 -1.91609e-011 -2.3878e-011
642
root  -28.1645 39.1128 20.5564 0.0924225 45.5333 1.58154
RightUpLeg  21.0852 9.74577 7.73924
RightLeg  -84.6069 -14.2583 6.08133
RightFoot  13.0758 6.75714 -17.9933
RightToes  -1.27222e-014 -6.36111e-015 6.36111e-015
Spine  -40.2186 -16.4354 -11.1431
Spine1  8.32551 -13.6279 55.5332
HEad  12.5573 -56.5777 -19.4308
LeftShoulder1  6.36111e-015 -1.33558e-015 6.49777e-015
LeftArm  35.6485 -9.5061 -58.4493
LeftForeArm  -2.73515 -22.9167 -0.853565
LeftHand  -1.133 -0.662435 -11.5886
RightShoulder  -4.77083e-015 -6.36111e-015 -3.18055e-015
RightArm  52.2774 -27.9182 -18.4028
RightForeArm  -12.7838 -15.4971 0.0429397
RightHand  3.99617 -6.1058 -15.6212
LeftUpLeg  20.9843 21.7988 10.8145
LeftLeg  -10.4028 -3.1865 -1.38256
LeftFoot  5.64098 4.02097 -11.4752
LeftToes  9.54166e-015 -1.91609e-011 -2.3878e-011
643
root  -27.705 39.1098 21.0998 0.708847 43.9153 1.86209
RightUpLeg  21.6846 10.4566 7.61216
RightLeg  -84.3091 -14.0611 5.18088
RightFoot  13.1094 6.67251 -17.8467
RightToes  -1.27222e-014 -6.36111e-015 6.36111e-015
Spine  -39.4057 -15.6757 -11.4703
Spine1  8.36613 -12.7974 52.86
HEad  11.3802 -57.2971 -18.1951
LeftShoulder1  6.36111e-015 -1.33558e-015 6.49777e-015
LeftArm  36.9612 -9.24815 -58.6375
LeftForeArm  -1.69561 -21.7744 -1.87385
LeftHand  -1.11006 -0.503674 -11.8754
RightShoulder  -4.77083e-015 -6.36111e-015 -3.18055e-015
RightArm  52.3155 -25.1429 -13.8263
RightForeArm  -16.0074 -18.1634 -3.08549
RightHand  4.03838 -6.31243 -15.5083
LeftUpLeg  20.1306 25.2765 11.5552
LeftLeg  -17.2817 -8.41079 -1.01619
LeftFoot  7.23707 5.89014 -16.058
LeftToes  9.54166e-015 -1.91609e-011 -2.3878e-011
